<?xml version="1.0" standalone="no"?>
<!DOCTYPE svg PUBLIC "-//W3C//DTD SVG 20010904//EN"
 "http://www.w3.org/TR/2001/REC-SVG-20010904/DTD/svg10.dtd">
<svg version="1.0" xmlns="http://www.w3.org/2000/svg"
 width="700.000000pt" height="700.000000pt" viewBox="0 0 700.000000 700.000000"
 preserveAspectRatio="xMidYMid meet">
<metadata>
Created by potrace 1.11, written by Peter Selinger 2001-2013
</metadata>
<g transform="translate(0.000000,700.000000) scale(0.100000,-0.100000)"
fill="#000000" stroke="none">
<path d="M4894 6544 c-184 -54 -311 -215 -320 -405 -5 -122 31 -226 107 -314
l30 -34 -23 -34 c-13 -18 -124 -172 -248 -341 -255 -350 -476 -652 -495 -680
-13 -18 -15 -18 -47 2 -99 62 -237 119 -363 151 -281 70 -616 28 -860 -108
l-50 -28 -302 435 -302 436 28 35 c85 112 115 229 92 357 -57 308 -402 462
-672 298 -73 -44 -122 -101 -167 -194 -36 -72 -37 -79 -36 -180 0 -125 22
-192 88 -273 95 -117 211 -172 356 -170 51 0 103 7 129 17 25 9 48 13 52 9 3
-5 120 -172 259 -373 139 -201 272 -392 296 -426 l42 -61 -77 -75 c-197 -191
-312 -404 -363 -678 -14 -72 -18 -307 -7 -368 23 -120 33 -162 57 -232 56
-171 156 -327 296 -465 126 -126 231 -197 394 -266 17 -8 32 -17 32 -20 0 -6
-26 -86 -129 -404 -27 -82 -93 -285 -146 -450 -54 -165 -116 -356 -139 -424
l-41 -124 -59 0 c-296 1 -507 -292 -418 -582 27 -89 114 -197 194 -243 105
-59 256 -76 363 -41 183 60 308 230 307 419 0 95 -22 172 -71 247 -41 62 -65
87 -122 125 l-36 24 52 160 c28 87 85 260 125 384 40 124 91 284 115 355 23
72 70 216 104 321 l62 191 72 -13 c99 -18 283 -17 397 1 146 24 314 87 432
161 21 13 41 24 46 24 4 0 30 -30 57 -67 27 -38 55 -74 61 -80 7 -7 22 -28 34
-48 l22 -35 -35 -42 c-67 -83 -97 -168 -98 -275 0 -124 43 -232 129 -318 174
-175 452 -174 629 3 114 113 156 279 110 437 -40 141 -170 266 -317 305 -59
16 -162 14 -226 -3 l-52 -15 -87 118 c-48 65 -88 120 -89 123 0 3 26 34 59 69
51 53 80 89 142 174 5 5 13 19 19 30 81 144 120 241 153 379 10 44 23 79 27
78 5 -1 47 -4 92 -8 46 -4 92 -8 101 -10 10 -2 49 -6 87 -10 39 -3 83 -8 99
-10 17 -2 59 -6 95 -9 36 -4 81 -9 100 -11 60 -7 164 -18 178 -18 6 0 12 -10
12 -22 0 -68 72 -208 139 -268 281 -254 725 -72 746 305 13 245 -181 454 -430
463 -170 7 -325 -84 -407 -239 -16 -28 -28 -57 -28 -65 0 -10 -13 -12 -57 -7
-32 3 -101 10 -153 16 -52 5 -113 11 -135 14 -22 2 -71 7 -110 11 -38 3 -81 8
-95 10 -14 2 -56 7 -95 10 -77 6 -127 14 -134 20 -2 3 -5 33 -6 67 -1 35 -5
83 -9 108 -4 25 -10 59 -12 75 -9 56 -54 194 -89 269 -63 136 -130 234 -236
342 l-59 61 160 219 c88 120 257 352 375 514 282 387 252 353 295 339 60 -19
175 -19 244 0 330 92 435 504 190 746 -31 30 -61 55 -66 55 -5 0 -22 9 -37 19
-64 46 -231 64 -327 35z"/>
</g>
</svg>
