<?xml version="1.0" standalone="no"?>
<!DOCTYPE svg PUBLIC "-//W3C//DTD SVG 20010904//EN"
 "http://www.w3.org/TR/2001/REC-SVG-20010904/DTD/svg10.dtd">
<svg version="1.0" xmlns="http://www.w3.org/2000/svg"
 width="700.000000pt" height="700.000000pt" viewBox="0 0 700.000000 700.000000"
 preserveAspectRatio="xMidYMid meet">
<metadata>
Created by potrace 1.11, written by Peter Selinger 2001-2013
</metadata>
<g transform="translate(0.000000,700.000000) scale(0.100000,-0.100000)"
fill="#000000" stroke="none">
<path d="M4870 6986 c-234 -52 -396 -262 -385 -498 6 -123 38 -210 112 -302
l40 -49 -166 -228 c-91 -125 -267 -366 -391 -536 -123 -169 -228 -312 -232
-318 -5 -5 -24 -31 -44 -58 l-35 -47 -50 27 c-27 16 -49 31 -49 36 0 4 -4 7
-9 7 -5 0 -42 15 -83 34 -172 79 -338 116 -533 120 -233 5 -433 -39 -639 -140
-49 -25 -90 -43 -91 -42 -28 35 -465 672 -465 678 0 5 -4 10 -8 12 -5 2 -44
55 -87 118 -43 63 -85 123 -93 132 -13 16 -10 24 32 85 59 88 86 167 91 268
13 290 -217 522 -508 511 -222 -7 -397 -146 -460 -362 -19 -66 -18 -203 2
-269 52 -165 188 -295 353 -338 62 -16 208 -16 248 0 14 6 36 13 51 16 28 7
22 16 207 -253 59 -85 133 -191 164 -236 31 -45 97 -141 148 -215 51 -74 113
-162 136 -196 l44 -62 -23 -16 c-79 -55 -225 -225 -299 -350 -52 -87 -123
-245 -134 -299 -2 -10 -10 -42 -18 -70 -8 -28 -18 -78 -22 -111 -3 -33 -8 -69
-11 -80 -8 -38 -3 -255 7 -317 18 -112 20 -122 50 -220 109 -354 363 -646 707
-815 62 -30 111 -58 109 -62 -2 -3 -40 -121 -85 -261 -45 -140 -91 -280 -101
-310 -10 -30 -67 -203 -125 -385 -59 -181 -125 -386 -147 -455 -23 -69 -44
-128 -47 -132 -3 -4 -37 -8 -76 -9 -273 -8 -479 -221 -479 -494 0 -144 44
-246 150 -352 101 -99 212 -142 359 -137 209 6 383 135 451 333 23 69 33 176
20 236 -14 67 -31 117 -59 165 -33 60 -133 164 -166 175 -12 3 -21 12 -21 20
0 14 65 224 80 260 5 11 41 121 81 245 39 124 97 304 129 400 31 96 92 284
135 417 l79 242 40 -5 c23 -3 58 -9 78 -14 60 -13 305 -10 393 5 178 30 355
95 492 182 l53 33 42 -58 c24 -31 47 -61 51 -67 4 -5 28 -38 53 -73 50 -67 50
-63 1 -117 -55 -61 -94 -163 -103 -270 -13 -139 38 -276 140 -381 99 -100 213
-147 357 -147 70 0 100 6 160 28 90 35 118 53 190 127 93 94 129 181 134 322
5 148 -36 256 -140 362 -125 127 -313 178 -479 130 -32 -10 -59 -16 -61 -14
-1 2 -35 48 -76 103 -41 55 -77 102 -80 105 -3 3 -13 19 -23 35 l-18 30 65 65
c183 186 319 450 362 703 l6 39 67 -7 c74 -7 136 -13 197 -20 22 -2 87 -9 145
-15 58 -5 128 -13 155 -16 58 -6 106 -11 190 -19 105 -10 111 -12 113 -45 10
-129 123 -291 250 -358 309 -164 686 28 729 372 7 62 7 60 -1 121 -29 208
-176 373 -375 419 -62 14 -183 15 -231 1 -14 -4 -37 -9 -52 -12 -15 -3 -33
-11 -39 -19 -6 -8 -16 -14 -21 -14 -16 0 -94 -57 -129 -95 -42 -44 -109 -153
-109 -177 0 -15 -9 -21 -30 -20 -23 1 -212 21 -275 28 -27 3 -70 8 -95 10 -57
5 -236 23 -275 29 -16 2 -66 7 -110 10 -44 4 -81 8 -82 9 -1 1 -5 37 -8 81
-25 358 -151 647 -387 886 l-65 65 22 30 c13 16 145 198 295 404 151 206 305
418 343 470 39 52 98 133 131 178 102 139 84 126 143 109 70 -21 199 -19 270
3 212 67 351 252 351 470 1 173 -79 321 -223 419 -96 65 -256 94 -375 67z"/>
</g>
</svg>
